<mxfile host="65bd71144e">
    <diagram id="TTDdCIv0O9vq8EwzP0x0" name="Page-1">
        <mxGraphModel dx="2586" dy="1214" grid="1" gridSize="10" guides="1" tooltips="1" connect="1" arrows="1" fold="1" page="1" pageScale="1" pageWidth="1654" pageHeight="1169" math="0" shadow="0">
            <root>
                <mxCell id="0"/>
                <mxCell id="1" parent="0"/>
                <mxCell id="3" value="" style="rounded=0;whiteSpace=wrap;html=1;" vertex="1" parent="1">
                    <mxGeometry width="1650" height="1160" as="geometry"/>
                </mxCell>
                <mxCell id="4" value="" style="rounded=1;whiteSpace=wrap;html=1;" vertex="1" parent="1">
                    <mxGeometry x="358" y="340" width="230" height="230" as="geometry"/>
                </mxCell>
                <mxCell id="5" value="&lt;font style=&quot;font-size: 49px;&quot;&gt;Choose your profile&lt;/font&gt;" style="text;html=1;strokeColor=none;fillColor=none;align=center;verticalAlign=middle;whiteSpace=wrap;rounded=0;fontSize=49;fontStyle=0" vertex="1" parent="1">
                    <mxGeometry x="358" y="130" width="938" height="130" as="geometry"/>
                </mxCell>
                <mxCell id="6" value="" style="rounded=1;whiteSpace=wrap;html=1;" vertex="1" parent="1">
                    <mxGeometry x="700" y="340" width="230" height="230" as="geometry"/>
                </mxCell>
                <mxCell id="7" value="" style="rounded=1;whiteSpace=wrap;html=1;" vertex="1" parent="1">
                    <mxGeometry x="1040" y="340" width="230" height="230" as="geometry"/>
                </mxCell>
                <mxCell id="8" value="" style="rounded=1;whiteSpace=wrap;html=1;" vertex="1" parent="1">
                    <mxGeometry x="358" y="700" width="230" height="230" as="geometry"/>
                </mxCell>
                <mxCell id="9" value="" style="rounded=1;whiteSpace=wrap;html=1;" vertex="1" parent="1">
                    <mxGeometry x="700" y="700" width="230" height="230" as="geometry"/>
                </mxCell>
                <mxCell id="10" value="" style="rounded=1;whiteSpace=wrap;html=1;arcSize=50;" vertex="1" parent="1">
                    <mxGeometry x="1065" y="720" width="180" height="190" as="geometry"/>
                </mxCell>
                <mxCell id="18" value="" style="shape=cross;whiteSpace=wrap;html=1;fontSize=49;size=0.24285465162626485;" vertex="1" parent="1">
                    <mxGeometry x="1085" y="745" width="140" height="140" as="geometry"/>
                </mxCell>
                <mxCell id="20" value="" style="rounded=1;whiteSpace=wrap;html=1;fontSize=49;" vertex="1" parent="1">
                    <mxGeometry x="390" y="575" width="60" height="60" as="geometry"/>
                </mxCell>
                <mxCell id="21" value="" style="rounded=1;whiteSpace=wrap;html=1;fontSize=49;" vertex="1" parent="1">
                    <mxGeometry x="490" y="575" width="60" height="60" as="geometry"/>
                </mxCell>
                <mxCell id="22" value="" style="html=1;verticalLabelPosition=bottom;align=center;labelBackgroundColor=#ffffff;verticalAlign=top;strokeWidth=2;strokeColor=#0080F0;shadow=0;dashed=0;shape=mxgraph.ios7.icons.pen;fontSize=49;" vertex="1" parent="1">
                    <mxGeometry x="405.3" y="590.15" width="29.4" height="29.7" as="geometry"/>
                </mxCell>
                <mxCell id="23" value="" style="html=1;verticalLabelPosition=bottom;align=center;labelBackgroundColor=#ffffff;verticalAlign=top;strokeWidth=2;strokeColor=#A50040;shadow=0;dashed=0;shape=mxgraph.ios7.icons.trashcan;fontSize=49;fillColor=#d80073;fontColor=#ffffff;" vertex="1" parent="1">
                    <mxGeometry x="508" y="590.15" width="24" height="30" as="geometry"/>
                </mxCell>
                <mxCell id="24" value="" style="rounded=1;whiteSpace=wrap;html=1;fontSize=49;" vertex="1" parent="1">
                    <mxGeometry x="735" y="575.15" width="60" height="60" as="geometry"/>
                </mxCell>
                <mxCell id="25" value="" style="rounded=1;whiteSpace=wrap;html=1;fontSize=49;" vertex="1" parent="1">
                    <mxGeometry x="835" y="575.15" width="60" height="60" as="geometry"/>
                </mxCell>
                <mxCell id="26" value="" style="html=1;verticalLabelPosition=bottom;align=center;labelBackgroundColor=#ffffff;verticalAlign=top;strokeWidth=2;strokeColor=#0080F0;shadow=0;dashed=0;shape=mxgraph.ios7.icons.pen;fontSize=49;" vertex="1" parent="1">
                    <mxGeometry x="750.3" y="590.3" width="29.4" height="29.7" as="geometry"/>
                </mxCell>
                <mxCell id="27" value="" style="html=1;verticalLabelPosition=bottom;align=center;labelBackgroundColor=#ffffff;verticalAlign=top;strokeWidth=2;strokeColor=#A50040;shadow=0;dashed=0;shape=mxgraph.ios7.icons.trashcan;fontSize=49;fillColor=#d80073;fontColor=#ffffff;" vertex="1" parent="1">
                    <mxGeometry x="853" y="590.3" width="24" height="30" as="geometry"/>
                </mxCell>
                <mxCell id="28" value="" style="rounded=1;whiteSpace=wrap;html=1;fontSize=49;" vertex="1" parent="1">
                    <mxGeometry x="1075" y="575" width="60" height="60" as="geometry"/>
                </mxCell>
                <mxCell id="29" value="" style="rounded=1;whiteSpace=wrap;html=1;fontSize=49;" vertex="1" parent="1">
                    <mxGeometry x="1175" y="575" width="60" height="60" as="geometry"/>
                </mxCell>
                <mxCell id="30" value="" style="html=1;verticalLabelPosition=bottom;align=center;labelBackgroundColor=#ffffff;verticalAlign=top;strokeWidth=2;strokeColor=#0080F0;shadow=0;dashed=0;shape=mxgraph.ios7.icons.pen;fontSize=49;" vertex="1" parent="1">
                    <mxGeometry x="1090.3" y="590.15" width="29.4" height="29.7" as="geometry"/>
                </mxCell>
                <mxCell id="31" value="" style="html=1;verticalLabelPosition=bottom;align=center;labelBackgroundColor=#ffffff;verticalAlign=top;strokeWidth=2;strokeColor=#A50040;shadow=0;dashed=0;shape=mxgraph.ios7.icons.trashcan;fontSize=49;fillColor=#d80073;fontColor=#ffffff;" vertex="1" parent="1">
                    <mxGeometry x="1193" y="590.15" width="24" height="30" as="geometry"/>
                </mxCell>
                <mxCell id="32" value="" style="rounded=1;whiteSpace=wrap;html=1;fontSize=49;" vertex="1" parent="1">
                    <mxGeometry x="393" y="940" width="60" height="60" as="geometry"/>
                </mxCell>
                <mxCell id="33" value="" style="rounded=1;whiteSpace=wrap;html=1;fontSize=49;" vertex="1" parent="1">
                    <mxGeometry x="493" y="940" width="60" height="60" as="geometry"/>
                </mxCell>
                <mxCell id="34" value="" style="html=1;verticalLabelPosition=bottom;align=center;labelBackgroundColor=#ffffff;verticalAlign=top;strokeWidth=2;strokeColor=#0080F0;shadow=0;dashed=0;shape=mxgraph.ios7.icons.pen;fontSize=49;" vertex="1" parent="1">
                    <mxGeometry x="408.3" y="955.15" width="29.4" height="29.7" as="geometry"/>
                </mxCell>
                <mxCell id="35" value="" style="html=1;verticalLabelPosition=bottom;align=center;labelBackgroundColor=#ffffff;verticalAlign=top;strokeWidth=2;strokeColor=#A50040;shadow=0;dashed=0;shape=mxgraph.ios7.icons.trashcan;fontSize=49;fillColor=#d80073;fontColor=#ffffff;" vertex="1" parent="1">
                    <mxGeometry x="511" y="955.15" width="24" height="30" as="geometry"/>
                </mxCell>
                <mxCell id="36" value="" style="rounded=1;whiteSpace=wrap;html=1;fontSize=49;" vertex="1" parent="1">
                    <mxGeometry x="735" y="940.15" width="60" height="60" as="geometry"/>
                </mxCell>
                <mxCell id="37" value="" style="rounded=1;whiteSpace=wrap;html=1;fontSize=49;" vertex="1" parent="1">
                    <mxGeometry x="835" y="940.15" width="60" height="60" as="geometry"/>
                </mxCell>
                <mxCell id="38" value="" style="html=1;verticalLabelPosition=bottom;align=center;labelBackgroundColor=#ffffff;verticalAlign=top;strokeWidth=2;strokeColor=#0080F0;shadow=0;dashed=0;shape=mxgraph.ios7.icons.pen;fontSize=49;" vertex="1" parent="1">
                    <mxGeometry x="750.3" y="955.3" width="29.4" height="29.7" as="geometry"/>
                </mxCell>
                <mxCell id="39" value="" style="html=1;verticalLabelPosition=bottom;align=center;labelBackgroundColor=#ffffff;verticalAlign=top;strokeWidth=2;strokeColor=#A50040;shadow=0;dashed=0;shape=mxgraph.ios7.icons.trashcan;fontSize=49;fillColor=#d80073;fontColor=#ffffff;" vertex="1" parent="1">
                    <mxGeometry x="853" y="955.3" width="24" height="30" as="geometry"/>
                </mxCell>
                <mxCell id="41" value="" style="html=1;verticalLabelPosition=bottom;align=center;labelBackgroundColor=#ffffff;verticalAlign=top;strokeWidth=2;strokeColor=#0080F0;shadow=0;dashed=0;shape=mxgraph.ios7.icons.user;fontSize=49;" vertex="1" parent="1">
                    <mxGeometry x="388" y="365" width="170" height="180" as="geometry"/>
                </mxCell>
                <mxCell id="42" value="" style="html=1;verticalLabelPosition=bottom;align=center;labelBackgroundColor=#ffffff;verticalAlign=top;strokeWidth=2;strokeColor=#0080F0;shadow=0;dashed=0;shape=mxgraph.ios7.icons.user;fontSize=49;" vertex="1" parent="1">
                    <mxGeometry x="725" y="365" width="170" height="180" as="geometry"/>
                </mxCell>
                <mxCell id="43" value="" style="html=1;verticalLabelPosition=bottom;align=center;labelBackgroundColor=#ffffff;verticalAlign=top;strokeWidth=2;strokeColor=#0080F0;shadow=0;dashed=0;shape=mxgraph.ios7.icons.user;fontSize=49;" vertex="1" parent="1">
                    <mxGeometry x="1070" y="365" width="170" height="180" as="geometry"/>
                </mxCell>
                <mxCell id="44" value="" style="html=1;verticalLabelPosition=bottom;align=center;labelBackgroundColor=#ffffff;verticalAlign=top;strokeWidth=2;strokeColor=#0080F0;shadow=0;dashed=0;shape=mxgraph.ios7.icons.user;fontSize=49;" vertex="1" parent="1">
                    <mxGeometry x="388" y="725" width="170" height="180" as="geometry"/>
                </mxCell>
                <mxCell id="45" value="" style="html=1;verticalLabelPosition=bottom;align=center;labelBackgroundColor=#ffffff;verticalAlign=top;strokeWidth=2;strokeColor=#0080F0;shadow=0;dashed=0;shape=mxgraph.ios7.icons.user;fontSize=49;" vertex="1" parent="1">
                    <mxGeometry x="740" y="725" width="170" height="180" as="geometry"/>
                </mxCell>
            </root>
        </mxGraphModel>
    </diagram>
</mxfile>